<?xml version="1.0" ?><!DOCTYPE svg  PUBLIC '-//W3C//DTD SVG 1.1//EN'  'http://www.w3.org/Graphics/SVG/1.1/DTD/svg11.dtd'><svg enable-background="new 0 0 100 100" id="Layer_1" version="1.1" viewBox="0 0 100 100" xml:space="preserve" xmlns="http://www.w3.org/2000/svg" xmlns:xlink="http://www.w3.org/1999/xlink"><g><path d="M81.355,33.699c-1.195-3.935-4.318-7.076-8.357-8.405c-3.975-1.308-8.873-0.358-12.488,2.245   c-2.836-2.428-6.822-3.893-10.748-3.869c-4.268,0.029-8.191,1.801-11.229,5.032c-6.391-2.428-11.846-1.845-16.246,1.733   c-2.512,2.04-4.016,5.259-4.129,8.83c-0.121,3.884,1.367,7.642,3.981,10.054c1.903,1.756,4.306,2.579,6.73,2.834V72.71l1.646,0.598   c5.752,2.09,13.68,3.023,21.273,3.023c8.377,0,16.348-1.137,20.547-3.11l1.436-0.676V48.07c2.054-0.62,3.972-1.832,5.517-3.809   C81.702,41.176,82.454,37.327,81.355,33.699z M75.351,41.18c-3.432,4.385-9.279,1.5-9.934,1.158   c-1.219-0.64-2.732-0.167-3.375,1.054c-0.641,1.223-0.168,2.733,1.055,3.374c1.726,0.905,3.681,1.518,5.674,1.728v20.774   c-7.529,2.571-24.608,2.943-34.902-0.119V51.925c1.157-0.231,2.237-0.558,3.156-0.958c3.107,0.934,6.051,1.4,8.779,1.4   c3.478,0,6.605-0.758,9.273-2.27c1.201-0.681,1.623-2.207,0.941-3.408c-0.68-1.201-2.209-1.621-3.406-0.941   c-4.703,2.664-10.756,1.558-15.01,0.16l-1.049-0.345l-0.961,0.542c-2.07,1.167-7.354,2.041-10.064-0.462   c-1.539-1.42-2.449-3.804-2.373-6.221c0.039-1.246,0.389-3.566,2.283-5.107c2.078-1.688,5.664-3.558,12.787-0.327l1.818,0.825   l1.207-1.591c2.832-3.735,6.209-4.538,8.543-4.554h0.072c3.799,0,7.076,1.986,8.523,3.843l1.799,2.308l2-2.137   c2.277-2.436,6.334-3.599,9.246-2.64c2.457,0.808,4.424,2.765,5.135,5.107C77.2,37.228,76.767,39.37,75.351,41.18z" fill="#656565"/></g></svg>